<svg width="192" height="56" viewBox="0 0 192 56" fill="none" xmlns="http://www.w3.org/2000/svg">
<path d="M62.6035 27.8613V29.1416C62.6035 31.195 62.3252 33.0381 61.7686 34.6709C61.2119 36.3037 60.4264 37.6953 59.4121 38.8457C58.3978 39.9837 57.1855 40.8558 55.7754 41.4619C54.3776 42.068 52.8252 42.3711 51.1182 42.3711C49.4235 42.3711 47.8711 42.068 46.4609 41.4619C45.0632 40.8558 43.8509 39.9837 42.8242 38.8457C41.7975 37.6953 40.9997 36.3037 40.4307 34.6709C39.874 33.0381 39.5957 31.195 39.5957 29.1416V27.8613C39.5957 25.7956 39.874 23.9525 40.4307 22.332C40.9873 20.6992 41.7728 19.3076 42.7871 18.1572C43.8138 17.0068 45.026 16.1286 46.4238 15.5225C47.834 14.9163 49.3864 14.6133 51.0811 14.6133C52.7881 14.6133 54.3405 14.9163 55.7383 15.5225C57.1484 16.1286 58.3607 17.0068 59.375 18.1572C60.4017 19.3076 61.1934 20.6992 61.75 22.332C62.319 23.9525 62.6035 25.7956 62.6035 27.8613ZM56.9814 29.1416V27.8242C56.9814 26.3893 56.8516 25.1276 56.5918 24.0391C56.332 22.9505 55.9486 22.0352 55.4414 21.293C54.9342 20.5508 54.3158 19.9941 53.5859 19.623C52.8561 19.2396 52.0212 19.0479 51.0811 19.0479C50.141 19.0479 49.306 19.2396 48.5762 19.623C47.8587 19.9941 47.2464 20.5508 46.7393 21.293C46.2445 22.0352 45.8672 22.9505 45.6074 24.0391C45.3477 25.1276 45.2178 26.3893 45.2178 27.8242V29.1416C45.2178 30.5641 45.3477 31.8258 45.6074 32.9268C45.8672 34.0153 46.2507 34.9368 46.7578 35.6914C47.265 36.4336 47.8835 36.9964 48.6133 37.3799C49.3431 37.7633 50.1781 37.9551 51.1182 37.9551C52.0583 37.9551 52.8932 37.7633 53.623 37.3799C54.3529 36.9964 54.9652 36.4336 55.46 35.6914C55.9548 34.9368 56.332 34.0153 56.5918 32.9268C56.8516 31.8258 56.9814 30.5641 56.9814 29.1416ZM71.6211 26.3027V42H66.2773V21.9238H71.3057L71.6211 26.3027ZM77.6699 21.7939L77.5771 26.748C77.3174 26.7109 77.002 26.68 76.6309 26.6553C76.2721 26.6182 75.9443 26.5996 75.6475 26.5996C74.8929 26.5996 74.2373 26.6986 73.6807 26.8965C73.1364 27.082 72.6787 27.3604 72.3076 27.7314C71.9489 28.1025 71.6768 28.554 71.4912 29.0859C71.318 29.6178 71.2191 30.224 71.1943 30.9043L70.1182 30.5703C70.1182 29.2715 70.248 28.0778 70.5078 26.9893C70.7676 25.8883 71.1449 24.9297 71.6396 24.1133C72.1468 23.2969 72.7653 22.666 73.4951 22.2207C74.2249 21.7754 75.0599 21.5527 76 21.5527C76.2969 21.5527 76.5999 21.5775 76.9092 21.627C77.2184 21.6641 77.472 21.7197 77.6699 21.7939ZM92.5322 21.9238H97.375V41.332C97.375 43.1628 96.9668 44.7152 96.1504 45.9893C95.3464 47.2757 94.2207 48.2467 92.7734 48.9023C91.3262 49.5703 89.6439 49.9043 87.7266 49.9043C86.8854 49.9043 85.9948 49.793 85.0547 49.5703C84.127 49.3477 83.2363 49.0013 82.3828 48.5312C81.5417 48.0612 80.8366 47.4674 80.2676 46.75L82.624 43.5957C83.2425 44.3132 83.96 44.8698 84.7764 45.2656C85.5928 45.6738 86.4958 45.8779 87.4854 45.8779C88.4502 45.8779 89.2666 45.6986 89.9346 45.3398C90.6025 44.9935 91.1159 44.4801 91.4746 43.7998C91.8333 43.1318 92.0127 42.3216 92.0127 41.3691V26.5625L92.5322 21.9238ZM79.0244 32.2031V31.8135C79.0244 30.2796 79.21 28.888 79.5811 27.6387C79.9645 26.377 80.5026 25.2946 81.1953 24.3916C81.9004 23.4886 82.7539 22.7897 83.7559 22.2949C84.7578 21.8001 85.8896 21.5527 87.1514 21.5527C88.4873 21.5527 89.6068 21.8001 90.5098 22.2949C91.4128 22.7897 92.1549 23.4948 92.7363 24.4102C93.3177 25.3132 93.7692 26.3831 94.0908 27.6201C94.4248 28.8447 94.6846 30.1868 94.8701 31.6465V32.5C94.6846 33.8978 94.4062 35.1966 94.0352 36.3965C93.6641 37.5964 93.1755 38.6478 92.5693 39.5508C91.9632 40.4414 91.2087 41.1341 90.3057 41.6289C89.415 42.1237 88.3512 42.3711 87.1143 42.3711C85.8773 42.3711 84.7578 42.1175 83.7559 41.6104C82.7663 41.1032 81.9189 40.3919 81.2139 39.4766C80.5088 38.5612 79.9645 37.485 79.5811 36.248C79.21 35.0111 79.0244 33.6628 79.0244 32.2031ZM84.3682 31.8135V32.2031C84.3682 33.0319 84.4486 33.805 84.6094 34.5225C84.7702 35.2399 85.0176 35.877 85.3516 36.4336C85.6979 36.9779 86.1247 37.4046 86.6318 37.7139C87.1514 38.0107 87.7637 38.1592 88.4688 38.1592C89.446 38.1592 90.2438 37.9551 90.8623 37.5469C91.4808 37.1263 91.9447 36.5511 92.2539 35.8213C92.5632 35.0915 92.7425 34.2503 92.792 33.2979V30.8672C92.7673 30.0879 92.6621 29.389 92.4766 28.7705C92.291 28.1396 92.0312 27.6016 91.6973 27.1562C91.3633 26.7109 90.9303 26.3646 90.3984 26.1172C89.8665 25.8698 89.2357 25.7461 88.5059 25.7461C87.8008 25.7461 87.1885 25.9069 86.6689 26.2285C86.1618 26.5378 85.735 26.9645 85.3887 27.5088C85.0547 28.0531 84.8011 28.6963 84.6279 29.4385C84.4548 30.1683 84.3682 30.96 84.3682 31.8135ZM112.367 37.4727V28.5293C112.367 27.8861 112.262 27.3356 112.052 26.8779C111.841 26.4079 111.514 26.043 111.068 25.7832C110.635 25.5234 110.073 25.3936 109.38 25.3936C108.786 25.3936 108.273 25.4987 107.84 25.709C107.407 25.9069 107.073 26.1976 106.838 26.5811C106.603 26.9521 106.485 27.3913 106.485 27.8984H101.142C101.142 27.0449 101.34 26.2347 101.735 25.4678C102.131 24.7008 102.706 24.0267 103.461 23.4453C104.215 22.8516 105.112 22.3877 106.151 22.0537C107.203 21.7197 108.378 21.5527 109.677 21.5527C111.235 21.5527 112.621 21.8125 113.833 22.332C115.045 22.8516 115.998 23.6309 116.69 24.6699C117.396 25.709 117.748 27.0078 117.748 28.5664V37.1572C117.748 38.2581 117.816 39.1611 117.952 39.8662C118.088 40.5589 118.286 41.165 118.546 41.6846V42H113.146C112.887 41.4557 112.689 40.7754 112.553 39.959C112.429 39.1302 112.367 38.3014 112.367 37.4727ZM113.072 29.7725L113.109 32.7969H110.122C109.417 32.7969 108.805 32.8773 108.285 33.0381C107.766 33.1989 107.339 33.4277 107.005 33.7246C106.671 34.0091 106.424 34.3431 106.263 34.7266C106.114 35.11 106.04 35.5306 106.04 35.9883C106.04 36.446 106.145 36.8604 106.355 37.2314C106.566 37.5902 106.869 37.8747 107.265 38.085C107.66 38.2829 108.124 38.3818 108.656 38.3818C109.46 38.3818 110.159 38.221 110.753 37.8994C111.347 37.5778 111.804 37.182 112.126 36.7119C112.46 36.2419 112.633 35.7965 112.646 35.376L114.056 37.6396C113.858 38.1468 113.586 38.6725 113.239 39.2168C112.905 39.7611 112.479 40.2744 111.959 40.7568C111.439 41.2269 110.815 41.6165 110.085 41.9258C109.355 42.2227 108.489 42.3711 107.487 42.3711C106.213 42.3711 105.057 42.1175 104.018 41.6104C102.991 41.0908 102.174 40.3796 101.568 39.4766C100.975 38.5612 100.678 37.5221 100.678 36.3594C100.678 35.3079 100.876 34.374 101.271 33.5576C101.667 32.7412 102.249 32.0547 103.016 31.498C103.795 30.929 104.766 30.5023 105.929 30.2178C107.091 29.9209 108.44 29.7725 109.974 29.7725H113.072ZM127.1 26.21V42H121.756V21.9238H126.766L127.1 26.21ZM126.32 31.2568H124.873C124.873 29.7725 125.065 28.4365 125.448 27.249C125.832 26.0492 126.37 25.0286 127.062 24.1875C127.755 23.334 128.578 22.6846 129.53 22.2393C130.495 21.7816 131.571 21.5527 132.759 21.5527C133.699 21.5527 134.559 21.6888 135.338 21.9609C136.117 22.2331 136.785 22.666 137.342 23.2598C137.911 23.8535 138.344 24.639 138.641 25.6162C138.95 26.5934 139.104 27.7871 139.104 29.1973V42H133.724V29.1787C133.724 28.2881 133.6 27.5954 133.353 27.1006C133.105 26.6058 132.74 26.2594 132.258 26.0615C131.788 25.8512 131.206 25.7461 130.514 25.7461C129.796 25.7461 129.172 25.8883 128.64 26.1729C128.12 26.4574 127.687 26.8532 127.341 27.3604C127.007 27.8551 126.753 28.4365 126.58 29.1045C126.407 29.7725 126.32 30.4899 126.32 31.2568ZM148.809 21.9238V42H143.446V21.9238H148.809ZM143.112 16.6914C143.112 15.9121 143.384 15.2689 143.929 14.7617C144.473 14.2546 145.203 14.001 146.118 14.001C147.021 14.001 147.745 14.2546 148.289 14.7617C148.846 15.2689 149.124 15.9121 149.124 16.6914C149.124 17.4707 148.846 18.1139 148.289 18.6211C147.745 19.1283 147.021 19.3818 146.118 19.3818C145.203 19.3818 144.473 19.1283 143.929 18.6211C143.384 18.1139 143.112 17.4707 143.112 16.6914ZM161.519 38.1963C162.174 38.1963 162.756 38.0726 163.263 37.8252C163.77 37.5654 164.166 37.2067 164.45 36.749C164.747 36.279 164.902 35.7285 164.914 35.0977H169.942C169.93 36.5078 169.553 37.7633 168.811 38.8643C168.068 39.9528 167.073 40.8125 165.823 41.4434C164.574 42.0618 163.176 42.3711 161.63 42.3711C160.071 42.3711 158.711 42.1113 157.548 41.5918C156.397 41.0723 155.439 40.3548 154.672 39.4395C153.905 38.5117 153.33 37.4355 152.946 36.2109C152.563 34.974 152.371 33.6504 152.371 32.2402V31.7021C152.371 30.2796 152.563 28.9561 152.946 27.7314C153.33 26.4945 153.905 25.4183 154.672 24.5029C155.439 23.5752 156.397 22.8516 157.548 22.332C158.698 21.8125 160.047 21.5527 161.593 21.5527C163.238 21.5527 164.679 21.8682 165.916 22.499C167.165 23.1299 168.143 24.0329 168.848 25.208C169.565 26.3708 169.93 27.75 169.942 29.3457H164.914C164.902 28.6777 164.759 28.0716 164.487 27.5273C164.228 26.9831 163.844 26.5501 163.337 26.2285C162.842 25.8945 162.23 25.7275 161.5 25.7275C160.721 25.7275 160.084 25.8945 159.589 26.2285C159.094 26.5501 158.711 26.9954 158.438 27.5645C158.166 28.1211 157.975 28.7581 157.863 29.4756C157.764 30.1807 157.715 30.9229 157.715 31.7021V32.2402C157.715 33.0195 157.764 33.7679 157.863 34.4854C157.962 35.2028 158.148 35.8398 158.42 36.3965C158.704 36.9531 159.094 37.3923 159.589 37.7139C160.084 38.0355 160.727 38.1963 161.519 38.1963ZM178.385 13.4814V42H173.041V13.4814H178.385ZM191.039 21.9238L182.318 31.8691L177.643 36.6006L175.694 32.7412L179.405 28.0283L184.619 21.9238H191.039ZM185.491 42L179.554 32.7227L183.246 29.4941L191.651 42H185.491Z" fill="#274C5B"/>
<path d="M1.85059 42.0684H19.2909H36.7312" stroke="#7EB693" stroke-width="2" stroke-miterlimit="10"/>
<path d="M5.79102 48.5L19.291 48.5L32.791 48.5" stroke="#7EB693" stroke-width="2" stroke-miterlimit="10"/>
<path d="M18.791 1.50002L18.791 8.50002L18.791 15.5" stroke="#7EB693" stroke-width="2" stroke-miterlimit="10"/>
<path d="M18.8657 14.7842V41.2158" stroke="#7EB693" stroke-width="2" stroke-miterlimit="10"/>
<path d="M29.9254 4.55275L18.8657 15.637" stroke="#7EB693" stroke-width="2" stroke-miterlimit="10"/>
<path d="M34.1792 8.81593L18.8657 24.1633" stroke="#7EB693" stroke-width="2" stroke-miterlimit="10"/>
<path d="M36.7314 15.6367L18.8657 32.6894" stroke="#7EB693" stroke-width="2" stroke-miterlimit="10"/>
<path d="M37.5821 23.3106L18.8657 42.0685" stroke="#7EB693" stroke-width="2" stroke-miterlimit="10"/>
<path d="M37.582 31.8369L27.373 42.0685" stroke="#7EB693" stroke-width="2" stroke-miterlimit="10"/>
<path d="M1 31.8369L11.209 42.0685" stroke="#7EB693" stroke-width="2" stroke-miterlimit="10"/>
<path d="M8.65674 4.55275L18.8657 15.637" stroke="#7EB693" stroke-width="2" stroke-miterlimit="10"/>
<path d="M4.40283 8.81593L18.8655 24.1633" stroke="#7EB693" stroke-width="2" stroke-miterlimit="10"/>
<path d="M1.85059 14.7842L18.8655 32.6895" stroke="#7EB693" stroke-width="2" stroke-miterlimit="10"/>
<path d="M1 22.458L18.8657 41.2159" stroke="#7EB693" stroke-width="2" stroke-miterlimit="10"/>
<path d="M19.291 54.8579C9.19019 54.8579 1 46.4056 1 35.9772V20.0228C1 9.5963 9.19019 1.14211 19.291 1.14211C29.3937 1.14211 37.5821 9.5963 37.5821 20.0228V35.9772C37.5839 46.4056 29.3937 54.8579 19.291 54.8579Z" stroke="#7EB693" stroke-width="2" stroke-miterlimit="10"/>
</svg>
