<svg viewBox="0 0 14 14" xmlns="http://www.w3.org/2000/svg">
<path d="M6.05215 1.59367C6.35975 0.689974 7.63787 0.689977 7.94547 1.59367L8.92899 4.48313C9.06694 4.8884 9.44755 5.16091 9.87565 5.16091H12.9559C13.9358 5.16091 14.331 6.42416 13.5258 6.98263L11.115 8.65456C10.7481 8.90901 10.5944 9.37584 10.7382 9.79851L11.6777 12.5586C11.9886 13.4718 10.9538 14.2523 10.1612 13.7025L7.5687 11.9046C7.22595 11.6668 6.77166 11.6668 6.42891 11.9046L3.83644 13.7025C3.04377 14.2523 2.00905 13.4718 2.31988 12.5586L3.25936 9.79851C3.40323 9.37584 3.24948 8.90901 2.88259 8.65456L0.471857 6.98263C-0.33338 6.42416 0.0618064 5.16091 1.04175 5.16091H4.12196C4.55006 5.16091 4.93068 4.8884 5.06862 4.48313L6.05215 1.59367Z"/>
</svg>
